# Blender v3.2.2 OBJ File: ''
# www.blender.org
mtllib untitled.mtl
o Cylinder.001
v -0.003254 1.309690 -5.539732
v 3.783172 1.391114 -3.813808
v 5.555833 1.301879 -0.001488
v 3.925064 1.305389 3.921838
v -0.000629 1.292520 5.575129
v -4.105531 1.191827 4.072449
v -5.566726 1.296595 0.000293
v -4.022529 1.230292 -4.043312
v -1.084195 3.613783 -3.745739
v 1.899713 3.675081 -3.447543
v 3.669483 3.481520 -1.061999
v 3.400036 3.584823 1.873626
v 1.077887 3.576200 3.724070
v -1.942296 3.822415 3.525092
v -3.691919 3.520433 1.068529
v -3.417697 3.618376 -1.883323
v 2.969953 2.218938 -4.190960
v -0.904870 2.349031 -5.260620
v -4.007368 2.077359 -2.850211
v -4.962214 2.152061 0.842055
v -2.907121 2.144646 4.094623
v 0.841977 2.151816 4.961842
v 4.068703 2.124658 2.890216
v 5.018676 2.189331 -0.853940
v 0.000000 -1.000000 -1.000000
v 0.707107 -1.000000 -0.707107
v 1.000000 -1.000000 0.000000
v 0.707107 -1.000000 0.707107
v -0.000000 -1.000000 1.000000
v -0.707107 -1.000000 0.707107
v -1.000000 -1.000000 -0.000000
v -0.707107 -1.000000 -0.707107
v -0.000000 8.807623 -1.000000
v 0.707107 8.807623 -0.707107
v 1.000000 8.807623 0.000000
v 0.707107 8.807623 0.707107
v -0.000000 8.807623 1.000000
v -0.707107 8.807623 0.707107
v -1.000000 8.807623 -0.000000
v -0.707107 8.807623 -0.707107
v 1.745522 3.947980 -4.507676
v 4.842076 3.689539 -2.078850
v 4.510883 3.926595 1.751116
v 1.949517 3.924850 4.426241
v -1.735254 3.934792 4.472544
v -4.144821 4.035851 1.859838
v -4.493763 3.918510 -1.738210
v -1.903805 4.024595 -4.289099
v 0.325230 5.822537 -3.456665
v 2.602599 5.655728 -2.168821
v 3.398309 5.729087 0.316010
v 2.237631 5.887487 2.698381
v -0.319278 5.745277 3.400676
v -2.547273 5.579494 2.106562
v -3.477206 5.865288 -0.324949
v -2.231010 5.872982 -2.691986
v 3.226569 4.475419 -2.178305
v 0.821191 4.789096 -4.438536
v -2.524443 4.737527 -3.712451
v -4.351631 4.672154 -0.903298
v -3.667880 4.612425 2.314882
v -0.984681 4.637240 4.187685
v 2.252089 4.647821 3.593025
v 3.983970 4.570135 0.852170
v -0.822735 6.150743 -4.083295
v 2.000693 6.405120 -3.106880
v 4.095617 6.143027 -0.823501
v 3.471472 6.146920 2.308191
v 0.827950 6.121519 4.142360
v -2.610806 5.933837 3.835757
v -4.118162 6.132093 0.825585
v -3.693745 6.000742 -2.491992
v -1.340916 7.817552 -2.582370
v 0.907279 7.992929 -2.867231
v 2.519722 7.703269 -1.311318
v 2.731159 7.744488 0.862896
v 1.340247 7.818757 2.578710
v -0.950113 8.231529 3.014101
v -2.499953 7.676885 1.302332
v -2.758960 7.797015 -0.873027
v 1.708303 6.891011 -3.847937
v -1.494391 6.857244 -3.856978
v -3.333632 6.517132 -1.487371
v -3.610137 6.657656 1.390813
v -1.595755 6.688211 3.569170
v 1.379226 6.684936 3.644302
v 3.482065 6.640078 1.575214
v 3.761075 6.783977 -1.432512
v -2.086125 8.180921 -3.058558
v 0.654627 8.235337 -3.529917
v 3.068116 8.175701 -2.091208
v 3.643541 8.178046 0.689356
v 2.097299 8.169445 3.079570
v -0.735363 8.102152 3.794061
v -3.074582 8.172170 2.094646
v -3.743078 8.127858 -0.719779
v -2.008175 9.720768 -1.660970
v -0.247865 9.761734 -2.618963
v 1.627202 9.632376 -1.967224
v 2.582909 9.701414 -0.244399
v 1.996538 9.695650 1.651375
v 0.253522 9.860199 2.677818
v -1.637137 9.658381 1.979272
v -2.596312 9.723837 0.245687
v 0.063555 8.788580 -3.432257
v -2.479102 8.875522 -2.565162
v -3.285799 8.693961 -0.066494
v -2.423976 8.743886 2.332132
v -0.065097 8.738930 3.355406
v 2.331949 8.743722 2.423800
v 3.334728 8.725572 0.065512
v 2.450690 8.768793 -2.359941
v -2.047463 10.028823 -1.623125
v -0.246606 10.073050 -2.480414
v 1.699005 10.014400 -1.956751
v 2.636438 9.985389 -0.149002
v 2.033178 9.952835 1.801356
v 0.216057 9.896689 2.844208
v -1.728889 9.965662 2.126251
v -2.737284 9.964952 0.312762
v -0.003665 11.536816 0.007825
v -0.003665 11.536816 0.007825
v -0.003665 11.536816 0.007825
v -0.003665 11.536816 0.007825
v -0.003665 11.536816 0.007825
v -0.003665 11.536816 0.007825
v -0.003665 11.536816 0.007825
v -0.003665 11.536816 0.007825
v 0.038743 10.596302 -2.271172
v -1.635961 10.653565 -1.700066
v -2.167287 10.533981 -0.054335
v -1.599652 10.566864 1.525504
v -0.045993 10.563601 2.199476
v 1.532805 10.566755 1.585880
v 2.193279 10.554802 0.032610
v 1.611013 10.583269 -1.564898
v -0.049423 10.927305 -1.653524
v -1.636732 10.882463 -0.058438
v -0.110393 10.903775 1.563251
v 1.500835 10.897445 0.004122
v -1.254426 10.968508 -1.242594
v -1.228301 10.906124 1.078307
v 1.025603 10.906046 1.121749
v 1.081876 10.917928 -1.145337
vt 0.226356 0.000000
vt 0.328050 0.089434
vt 0.328050 0.226072
vt 0.239077 0.329751
vt 0.101075 0.327802
vt 0.003907 0.234815
vt 0.000000 0.100731
vt 0.095232 0.008229
vt 0.427696 0.339180
vt 0.519836 0.359710
vt 0.566546 0.441236
vt 0.546824 0.532187
vt 0.467171 0.581466
vt 0.372964 0.563749
vt 0.328050 0.480331
vt 0.347619 0.388785
vt 0.441327 0.293030
vt 0.558775 0.341190
vt 0.877972 0.765311
vt 0.866466 0.648892
vt 0.875114 0.665012
vt 0.882789 0.750614
vt 0.840051 0.266124
vt 0.838429 0.385954
vt 0.785790 0.363877
vt 0.794959 0.273504
vt 0.773610 0.635653
vt 0.788467 0.540568
vt 0.835424 0.577464
vt 0.822596 0.658346
vt 0.885436 0.534546
vt 0.882789 0.577735
vt 0.836664 0.485186
vt 0.794079 0.444733
vt 0.566546 0.567327
vt 0.457684 0.620120
vt 0.781011 0.758295
vt 0.835424 0.749887
vt 0.750646 0.737420
vt 0.744713 0.604779
vt 0.867966 0.189178
vt 0.866915 0.283710
vt 0.841974 0.197052
vt 0.867966 0.421640
vt 0.863243 0.513404
vt 0.835424 0.616614
vt 0.858566 0.513404
vt 0.767178 0.513404
vt 0.844195 0.751799
vt 0.771763 0.836593
vt 0.810967 0.839619
vt 0.667809 0.221327
vt 0.650722 0.238415
vt 0.626558 0.238415
vt 0.609471 0.221327
vt 0.609471 0.197162
vt 0.626558 0.180074
vt 0.650722 0.180074
vt 0.667809 0.197161
vt 0.684867 0.180074
vt 0.708992 0.180093
vt 0.726051 0.197193
vt 0.726051 0.221356
vt 0.708992 0.238428
vt 0.684867 0.238409
vt 0.667809 0.221310
vt 0.667809 0.197146
vt 0.986249 0.205173
vt 0.995938 0.207111
vt 0.992247 0.492661
vt 0.973330 0.488878
vt 0.979675 0.502933
vt 0.996763 0.502933
vt 0.996763 0.812595
vt 0.979675 0.812595
vt 0.938422 0.502933
vt 0.955510 0.502933
vt 0.955510 0.812595
vt 0.938422 0.812595
vt 0.955673 0.510328
vt 0.979818 0.510571
vt 0.979818 0.810540
vt 0.955673 0.810297
vt 0.937907 0.514395
vt 0.937907 0.814364
vt 0.988694 0.244005
vt 0.978235 0.478494
vt 0.996200 0.514981
vt 0.996200 0.814950
vt 0.533512 0.015762
vt 0.609471 0.102665
vt 0.609471 0.217467
vt 0.520830 0.289309
vt 0.408659 0.293030
vt 0.328050 0.209129
vt 0.331462 0.092246
vt 0.410230 0.000000
vt 0.198505 0.643357
vt 0.198505 0.726128
vt 0.142465 0.786382
vt 0.058857 0.791208
vt 0.000000 0.732185
vt 0.001154 0.651259
vt 0.053414 0.587514
vt 0.137817 0.584979
vt 0.258097 0.834389
vt 0.234713 0.738649
vt 0.275588 0.744905
vt 0.295507 0.811204
vt 0.895816 0.382183
vt 0.896507 0.276568
vt 0.772773 0.223831
vt 0.775541 0.308227
vt 0.039698 0.879747
vt 0.040778 0.980643
vt 0.010155 0.950561
vt 0.004684 0.869949
vt 0.238043 0.641534
vt 0.259360 0.584980
vt 0.295507 0.609286
vt 0.276847 0.663022
vt 0.916374 0.204649
vt 0.784225 0.163195
vt 0.838308 0.399610
vt 0.784225 0.360880
vt 0.039108 0.792516
vt 0.000000 0.803863
vt 0.339682 0.996899
vt 0.328050 0.876114
vt 0.350824 0.900900
vt 0.391779 0.990513
vt 0.061931 0.791208
vt 0.061931 0.898135
vt 0.815474 0.395036
vt 0.867966 0.362136
vt 0.876055 0.251745
vt 0.896352 0.189178
vt 0.391779 0.778150
vt 0.388628 0.805737
vt 0.059039 1.000000
vt 0.225158 0.825520
vt 0.198505 0.715915
vt 0.167090 0.329751
vt 0.250641 0.391127
vt 0.250641 0.496684
vt 0.191387 0.584979
vt 0.082453 0.580755
vt 0.007006 0.512722
vt 0.000000 0.412148
vt 0.074742 0.348946
vt 0.639365 0.552306
vt 0.709204 0.565728
vt 0.742613 0.628503
vt 0.727413 0.695750
vt 0.668701 0.733459
vt 0.595130 0.723626
vt 0.566546 0.657525
vt 0.580063 0.589635
vt 0.648956 0.513404
vt 0.744713 0.545153
vt 0.668748 0.970935
vt 0.657040 0.886969
vt 0.702329 0.896081
vt 0.707664 0.952300
vt 0.444829 0.778150
vt 0.439738 0.865691
vt 0.391779 0.850812
vt 0.408291 0.790104
vt 0.269197 0.433227
vt 0.281877 0.351370
vt 0.316661 0.383999
vt 0.305649 0.448541
vt 0.673037 0.793689
vt 0.707664 0.827263
vt 0.435862 0.950689
vt 0.405515 0.917594
vt 0.744713 0.725458
vt 0.661245 0.766782
vt 0.273013 0.530088
vt 0.316661 0.515330
vt 0.260126 0.504110
vt 0.250641 0.410122
vt 0.737985 0.747763
vt 0.640763 0.776784
vt 0.462017 0.893391
vt 0.451198 0.973246
vt 0.635357 0.864288
vt 0.655592 0.776784
vt 0.270624 0.329751
vt 0.462017 0.789209
vt 0.647149 0.962655
vt 0.265068 0.569956
vt 0.291992 0.574082
vt 0.717813 0.293030
vt 0.785790 0.352790
vt 0.785790 0.444108
vt 0.726348 0.513404
vt 0.634109 0.512117
vt 0.569164 0.449982
vt 0.566546 0.360371
vt 0.630174 0.298544
vt 0.654795 0.000000
vt 0.717940 0.000249
vt 0.759951 0.046940
vt 0.759951 0.109022
vt 0.714855 0.152513
vt 0.650838 0.154180
vt 0.609602 0.106344
vt 0.609471 0.043755
vt 0.862255 0.839954
vt 0.875996 0.777490
vt 0.905786 0.805717
vt 0.894234 0.858775
vt 0.873031 0.974754
vt 0.858039 0.921202
vt 0.895547 0.920503
vt 0.905786 0.954034
vt 0.713742 0.180074
vt 0.633369 0.169367
vt 0.587776 0.927878
vt 0.590247 0.846691
vt 0.623923 0.866414
vt 0.621337 0.928406
vt 0.097287 0.850412
vt 0.094801 0.931547
vt 0.066475 0.912037
vt 0.061931 0.848289
vt 0.607095 0.792817
vt 0.635357 0.820139
vt 0.600217 0.990588
vt 0.635357 0.972312
vt 0.578907 0.985000
vt 0.566546 0.911438
vt 0.573931 0.824290
vt 0.593768 0.776784
vt 0.116975 0.865235
vt 0.112217 0.953904
vt 0.835424 0.909413
vt 0.842519 0.819647
vt 0.116975 0.791208
vt 0.098820 0.791766
vt 0.850025 0.977402
vt 0.863216 0.765311
vt 0.390039 0.619345
vt 0.485297 0.662966
vt 0.485297 0.728479
vt 0.442660 0.778150
vt 0.376505 0.777246
vt 0.329926 0.732680
vt 0.328050 0.668407
vt 0.373689 0.624089
vt 0.316661 0.329751
vt 0.316661 0.329751
vt 0.316661 0.329751
vt 0.316661 0.329751
vt 0.316661 0.329751
vt 0.316661 0.329751
vt 0.316661 0.329751
vt 0.316661 0.329751
vt 0.844445 0.136532
vt 0.804870 0.129408
vt 0.829974 0.083562
vt 0.829974 0.083562
vt 0.879204 0.071998
vt 0.873005 0.109590
vt 0.829974 0.083562
vt 0.829974 0.083562
vt 0.817742 0.036347
vt 0.855819 0.041522
vt 0.829974 0.083562
vt 0.829974 0.083562
vt 0.781462 0.098078
vt 0.787500 0.059922
vt 0.829974 0.083562
vt 0.829974 0.083562
vt 0.311960 0.737841
vt 0.297686 0.697173
vt 0.316910 0.686939
vt 0.326535 0.727933
vt 0.295507 0.632960
vt 0.304794 0.584979
vt 0.326535 0.597594
vt 0.316678 0.633441
vt 0.564169 0.620120
vt 0.564169 0.685566
vt 0.545314 0.689684
vt 0.543638 0.636246
vt 0.766494 0.270618
vt 0.759951 0.206934
vt 0.780746 0.196570
vt 0.784626 0.250015
vt 0.798975 0.001076
vt 0.864963 0.000000
vt 0.863292 0.022579
vt 0.810373 0.015387
vt 0.907673 0.049627
vt 0.907673 0.115096
vt 0.887177 0.117180
vt 0.895792 0.064935
vt 0.765798 0.154933
vt 0.784626 0.154624
vt 0.792484 0.144723
vt 0.759951 0.101180
vt 0.768343 0.048152
vt 0.847484 0.154624
vn -0.0089 0.9999 0.0047
vn -0.0094 -0.9999 0.0055
vn -0.1514 -0.6715 0.7253
vn 0.8050 -0.5749 0.1469
vn 0.1133 -0.5325 -0.8388
vn -0.7689 -0.6246 -0.1368
vn 0.5074 -0.6114 0.6073
vn 0.7006 -0.5634 -0.4378
vn -0.4688 -0.5865 -0.6605
vn -0.6455 -0.6472 0.4055
vn -0.8317 -0.3401 0.4389
vn -0.3975 -0.5124 -0.7612
vn 0.7407 -0.5645 -0.3642
vn 0.4550 -0.4051 0.7930
vn -0.8204 -0.4984 -0.2801
vn 0.2495 -0.5426 -0.8021
vn 0.7666 -0.5878 0.2584
vn -0.3326 -0.2579 0.9071
vn 0.0000 1.0000 -0.0000
vn 0.0000 -1.0000 -0.0000
vn 0.3827 0.0000 0.9239
vn 0.9239 0.0000 -0.3827
vn -0.3827 -0.0000 -0.9239
vn -0.9239 -0.0000 0.3827
vn -0.3827 -0.0000 0.9239
vn 0.9239 0.0000 0.3827
vn 0.3827 0.0000 -0.9239
vn -0.9239 -0.0000 -0.3827
vn 0.0179 0.9998 -0.0020
vn -0.0044 -0.9999 -0.0093
vn -0.5375 -0.5559 0.6341
vn 0.6822 -0.6143 0.3964
vn 0.4243 -0.6617 -0.6182
vn -0.7866 -0.4494 -0.4234
vn 0.1847 -0.6573 0.7307
vn 0.7325 -0.6340 -0.2480
vn -0.1699 -0.5423 -0.8228
vn -0.8804 -0.3967 0.2600
vn -0.5774 -0.8130 0.0752
vn -0.0750 -0.5805 -0.8108
vn 0.9427 -0.3027 -0.1403
vn 0.1279 -0.2694 0.9545
vn -0.5850 -0.6719 -0.4543
vn 0.5801 -0.4681 -0.6666
vn 0.7331 -0.3321 0.5935
vn -0.4794 -0.7396 0.4723
vn -0.0228 0.9995 0.0202
vn -0.0080 -0.9998 0.0167
vn 0.0625 -0.7276 0.6832
vn 0.8060 -0.5919 0.0052
vn -0.0983 -0.4990 -0.8610
vn -0.7090 -0.7048 -0.0232
vn 0.6487 -0.6027 0.4647
vn 0.6466 -0.5703 -0.5066
vn -0.5858 -0.6207 -0.5212
vn -0.5221 -0.7495 0.4070
vn -0.6798 0.3761 0.6296
vn -0.5554 -0.4887 -0.6729
vn 0.6256 -0.6405 -0.4453
vn 0.5892 -0.4937 0.6396
vn -0.8951 -0.4229 -0.1413
vn 0.0653 -0.5577 -0.8275
vn 0.6772 -0.7278 0.1085
vn -0.1680 0.2731 0.9472
vn -0.0047 0.9999 0.0089
vn -0.0047 -0.9999 0.0099
vn 0.2832 -0.6715 0.6847
vn 0.7480 -0.5749 -0.3318
vn -0.3786 -0.5325 -0.7570
vn -0.7125 -0.6246 0.3199
vn 0.7612 -0.6114 0.2163
vn 0.3325 -0.5634 -0.7563
vn -0.7593 -0.5865 -0.2819
vn -0.3052 -0.6472 0.6985
vn -0.4403 -0.3401 0.8309
vn -0.7570 -0.5124 -0.4054
vn 0.4071 -0.5645 -0.7180
vn 0.8225 -0.4051 0.3992
vn -0.8358 -0.4984 0.2304
vn -0.2454 -0.5426 -0.8033
vn 0.7790 -0.5878 -0.2181
vn 0.2358 -0.2579 0.9370
vn 0.0020 0.9997 0.0246
vn 0.0000 -0.0455 -0.9990
vn 0.0843 -0.9362 0.3412
vn 0.3735 -0.9205 -0.1150
vn -0.1464 -0.9127 -0.3815
vn -0.3878 -0.9132 0.1251
vn 0.3696 -0.9277 0.0519
vn 0.1556 -0.9186 -0.3632
vn -0.3866 -0.9087 -0.1574
vn -0.1621 -0.9249 0.3438
vn -0.3077 -0.4155 0.8560
vn -0.7483 -0.6044 -0.2734
vn 0.2655 -0.6613 -0.7016
vn 0.7917 -0.5612 0.2412
vn -0.7764 -0.5323 0.3375
vn -0.3229 -0.6526 -0.6854
vn 0.6812 -0.6633 -0.3098
vn 0.3592 -0.3191 0.8770
vn -0.2047 -0.8746 0.4395
vn -0.4307 -0.8851 -0.1763
vn 0.2054 -0.8543 -0.4775
vn 0.5459 -0.8298 0.1160
vn -0.4436 -0.8843 0.1459
vn -0.1734 -0.8757 -0.4507
vn 0.5394 -0.8233 -0.1767
vn 0.1351 -0.8652 0.4829
usemtl Material.001
s off
f 1/1/1 8/2/1 7/3/1 6/4/1 5/5/1 4/6/1 3/7/1 2/8/1
f 9/9/2 10/10/2 11/11/2 12/12/2 13/13/2 14/14/2 15/15/2 16/16/2
f 18/17/3 17/18/3 10/10/3 9/9/3
f 20/19/4 19/20/4 16/21/4 15/22/4
f 22/23/5 21/24/5 14/25/5 13/26/5
f 24/27/6 23/28/6 12/29/6 11/30/6
f 19/20/7 18/31/7 9/32/7 16/21/7
f 21/24/8 20/33/8 15/34/8 14/25/8
f 23/35/9 22/36/9 13/13/9 12/12/9
f 17/37/10 24/27/10 11/30/10 10/38/10
f 2/39/11 3/40/11 24/27/11 17/37/11
f 4/41/12 5/42/12 22/23/12 23/43/12
f 6/44/13 7/45/13 20/33/13 21/24/13
f 8/46/14 1/47/14 18/31/14 19/20/14
f 3/40/15 4/48/15 23/28/15 24/27/15
f 5/42/16 6/44/16 21/24/16 22/23/16
f 7/49/17 8/46/17 19/20/17 20/19/17
f 1/50/18 2/39/18 17/37/18 18/51/18
f 25/52/19 32/53/19 31/54/19 30/55/19 29/56/19 28/57/19 27/58/19 26/59/19
f 33/60/20 34/61/20 35/62/20 36/63/20 37/64/20 38/65/20 39/66/20 40/67/20
f 32/68/21 25/69/21 33/70/21 40/71/21
f 30/72/22 31/73/22 39/74/22 38/75/22
f 28/76/23 29/77/23 37/78/23 36/79/23
f 26/80/24 27/81/24 35/82/24 34/83/24
f 25/84/25 26/80/25 34/83/25 33/85/25
f 31/86/26 32/68/26 40/71/26 39/87/26
f 29/77/27 30/72/27 38/75/27 37/78/27
f 27/81/28 28/88/28 36/89/28 35/82/28
f 41/90/29 48/91/29 47/92/29 46/93/29 45/94/29 44/95/29 43/96/29 42/97/29
f 49/98/30 50/99/30 51/100/30 52/101/30 53/102/30 54/103/30 55/104/30 56/105/30
f 58/106/31 57/107/31 50/108/31 49/109/31
f 60/110/32 59/111/32 56/112/32 55/113/32
f 62/114/33 61/115/33 54/116/33 53/117/33
f 64/118/34 63/119/34 52/120/34 51/121/34
f 59/111/35 58/122/35 49/123/35 56/112/35
f 61/124/36 60/110/36 55/113/36 54/125/36
f 63/126/37 62/114/37 53/117/37 52/127/37
f 57/107/38 64/118/38 51/121/38 50/108/38
f 42/128/39 43/129/39 64/130/39 57/131/39
f 44/132/40 45/133/40 62/114/40 63/126/40
f 46/134/41 47/135/41 60/110/41 61/124/41
f 48/136/42 41/137/42 58/122/42 59/111/42
f 43/129/43 44/138/43 63/139/43 64/130/43
f 45/133/44 46/140/44 61/115/44 62/114/44
f 47/135/45 48/136/45 59/111/45 60/110/45
f 41/141/46 42/142/46 57/107/46 58/106/46
f 65/143/47 72/144/47 71/145/47 70/146/47 69/147/47 68/148/47 67/149/47 66/150/47
f 73/151/48 74/152/48 75/153/48 76/154/48 77/155/48 78/156/48 79/157/48 80/158/48
f 82/159/49 81/160/49 74/152/49 73/151/49
f 84/161/50 83/162/50 80/163/50 79/164/50
f 86/165/51 85/166/51 78/167/51 77/168/51
f 88/169/52 87/170/52 76/171/52 75/172/52
f 83/162/53 82/173/53 73/174/53 80/163/53
f 85/166/54 84/175/54 79/176/54 78/167/54
f 87/177/55 86/178/55 77/155/55 76/154/55
f 81/179/56 88/169/56 75/172/56 74/180/56
f 66/181/57 67/182/57 88/169/57 81/179/57
f 68/183/58 69/184/58 86/178/58 87/177/58
f 70/185/59 71/186/59 84/175/59 85/166/59
f 72/187/60 65/188/60 82/173/60 83/162/60
f 67/182/61 68/189/61 87/170/61 88/169/61
f 69/190/62 70/185/62 85/166/62 86/165/62
f 71/191/63 72/187/63 83/162/63 84/161/63
f 65/192/64 66/181/64 81/179/64 82/193/64
f 89/194/65 96/195/65 95/196/65 94/197/65 93/198/65 92/199/65 91/200/65 90/201/65
f 97/202/66 98/203/66 99/204/66 100/205/66 101/206/66 102/207/66 103/208/66 104/209/66
f 106/210/67 105/211/67 98/212/67 97/213/67
f 108/214/68 107/215/68 104/216/68 103/217/68
f 110/218/69 109/219/69 102/207/69 101/206/69
f 112/220/70 111/221/70 100/222/70 99/223/70
f 107/215/71 106/210/71 97/213/71 104/216/71
f 109/224/72 108/225/72 103/226/72 102/227/72
f 111/221/73 110/228/73 101/229/73 100/222/73
f 105/230/74 112/220/74 99/223/74 98/231/74
f 90/232/75 91/233/75 112/220/75 105/230/75
f 92/234/76 93/235/76 110/228/76 111/221/76
f 94/236/77 95/237/77 108/225/77 109/224/77
f 96/238/78 89/239/78 106/210/78 107/215/78
f 91/233/79 92/234/79 111/221/79 112/220/79
f 93/240/80 94/236/80 109/224/80 110/241/80
f 95/242/81 96/238/81 107/215/81 108/214/81
f 89/239/82 90/243/82 105/211/82 106/210/82
f 113/244/83 120/245/83 119/246/83 118/247/83 117/248/83 116/249/83 115/250/83 114/251/83
f 121/252/84 122/253/84 123/254/84 124/255/84 125/256/84 126/257/84 127/258/84 128/259/84
f 141/260/85 137/261/85 122/262/85 121/263/85
f 142/264/86 138/265/86 128/266/86 127/267/86
f 143/268/87 139/269/87 126/270/87 125/271/87
f 144/272/88 140/273/88 124/274/88 123/275/88
f 138/265/89 141/260/89 121/263/89 128/266/89
f 139/269/90 142/264/90 127/267/90 126/270/90
f 140/273/91 143/268/91 125/271/91 124/274/91
f 137/261/92 144/272/92 123/275/92 122/262/92
f 114/276/93 115/277/93 136/278/93 129/279/93
f 116/280/94 117/281/94 134/282/94 135/283/94
f 118/284/95 119/285/95 132/286/95 133/287/95
f 120/288/96 113/289/96 130/290/96 131/291/96
f 115/277/97 116/280/97 135/283/97 136/278/97
f 117/292/98 118/293/98 133/294/98 134/295/98
f 119/296/99 120/297/99 131/298/99 132/299/99
f 113/289/100 114/300/100 129/301/100 130/290/100
f 129/302/101 136/303/101 144/272/101 137/261/101
f 135/304/102 134/295/102 143/268/102 140/273/102
f 133/294/103 132/299/103 142/264/103 139/269/103
f 131/298/104 130/305/104 141/260/104 138/265/104
f 136/303/105 135/304/105 140/273/105 144/272/105
f 134/295/106 133/294/106 139/269/106 143/268/106
f 132/299/107 131/298/107 138/265/107 142/264/107
f 130/305/108 129/302/108 137/261/108 141/260/108
