# Blender v2.93.4 OBJ File: 'table.blend'
# www.blender.org
mtllib table.mtl
o Torus
v 1.143414 0.000000 -0.000000
v 1.125000 0.074415 0.000000
v 0.415515 0.047584 -0.000000
v 0.375483 0.000000 -0.000000
v 0.413960 -0.047584 0.000000
v 1.125000 -0.074415 0.000000
v 0.571707 0.000000 -2.766008
v 0.562500 0.074415 -2.721464
v 0.207757 0.047584 -1.823259
v 0.187742 0.000000 -1.805851
v 0.206980 -0.047584 -1.816436
v 0.562500 -0.074415 -2.721464
v -0.571707 0.000000 -2.766009
v -0.562500 0.074415 -2.721464
v -0.207757 0.047584 -1.823260
v -0.187741 0.000000 -1.805851
v -0.206980 -0.047584 -1.816436
v -0.562500 -0.074415 -2.721464
v -1.143414 0.000000 -0.000000
v -1.125000 0.074415 -0.000000
v -0.415514 0.047584 -0.000000
v -0.375483 0.000000 -0.000000
v -0.413959 -0.047584 -0.000000
v -1.125000 -0.074415 -0.000000
v -0.571707 0.000000 2.766008
v -0.562500 0.074415 2.721464
v -0.207757 0.047584 1.823260
v -0.187741 0.000000 1.805851
v -0.206980 -0.047584 1.816436
v -0.562500 -0.074415 2.721464
v 0.571707 0.000000 2.766008
v 0.562500 0.074415 2.721464
v 0.207757 0.047584 1.823260
v 0.187742 0.000000 1.805851
v 0.206980 -0.047584 1.816436
v 0.562500 -0.074415 2.721464
v 0.538575 -0.052286 0.000000
v 0.269287 -0.052286 -1.975049
v -0.269287 -0.052286 -1.975049
v -0.538575 -0.052286 -0.000000
v -0.269287 -0.052286 1.975049
v 0.269287 -0.052286 1.975049
v 0.579013 -0.592643 0.000000
v 0.289506 -0.592643 2.123342
v -0.289506 -0.592643 2.123342
v -0.579013 -0.592643 -0.000000
v -0.289506 -0.592643 -2.123342
v 0.289506 -0.592643 -2.123342
v 0.630847 -0.056778 0.173036
v 0.630847 -0.056778 -0.173036
v 0.724671 -0.059309 0.000000
v 0.355563 -0.056778 -1.953463
v 0.261321 -0.056778 -2.126549
v 0.378026 -0.060493 -2.251860
v -0.261321 -0.056778 -2.126549
v -0.355563 -0.056778 -1.953463
v -0.378026 -0.060493 -2.251860
v -0.630847 -0.056778 -0.173036
v -0.630847 -0.056778 0.173036
v -0.724671 -0.059309 -0.000000
v -0.355563 -0.056778 1.953463
v -0.261321 -0.056778 2.126549
v -0.378026 -0.060493 2.251860
v 0.261321 -0.056778 2.126549
v 0.355563 -0.056778 1.953463
v 0.378026 -0.060493 2.251860
v 0.680222 -0.597472 -0.173036
v 0.680222 -0.597472 0.173036
v 0.639907 -0.594941 0.000000
v 0.286008 -0.597472 -2.286217
v 0.380250 -0.597472 -2.113131
v 0.304263 -0.593757 -2.160907
v -0.380250 -0.597472 -2.113131
v -0.286008 -0.597472 -2.286217
v -0.304263 -0.593757 -2.160907
v -0.680222 -0.597472 0.173036
v -0.680222 -0.597472 -0.173036
v -0.639907 -0.594941 -0.000000
v -0.286008 -0.597472 2.286217
v -0.380250 -0.597472 2.113131
v -0.304263 -0.593757 2.160907
v 0.380250 -0.597472 2.113131
v 0.286008 -0.597472 2.286217
v 0.304263 -0.593757 2.160907
vt 0.929389 0.182218
vt 0.898375 0.023376
vt 0.929738 0.022077
vt 0.000526 0.189861
vt 0.425722 0.565292
vt 0.307298 0.684878
vt 0.893118 0.309306
vt 0.927185 0.497594
vt 0.889931 0.497550
vt 0.962041 0.310269
vt 0.964337 0.497637
vt 0.827059 0.614392
vt 0.739467 0.945680
vt 0.623224 0.850843
vt 0.959614 0.182210
vt 0.960355 0.023518
vt 0.929286 0.339216
vt 0.898784 0.182291
vt 0.263378 0.195671
vt 0.194592 0.264459
vt 0.928071 0.202455
vt 0.928071 0.307039
vt 0.810019 0.599905
vt 0.521445 0.760958
vt 0.732594 0.531015
vt 0.959681 0.339150
vt 0.929365 0.496169
vt 0.898883 0.339286
vt 0.187429 0.000996
vt 0.564068 0.426247
vt 0.894099 0.198905
vt 0.932403 0.022051
vt 0.962950 0.200272
vt 0.716224 0.515775
vt 0.397367 0.641291
vt 0.617380 0.419942
vt 0.899048 0.653188
vt 0.898966 0.496237
vt 0.989583 0.801971
vt 0.682670 0.306574
vt 0.894345 0.796013
vt 0.932449 0.973108
vt 0.897411 0.977011
vt 0.963197 0.795156
vt 0.967470 0.975217
vt 0.503525 0.304360
vt 0.379942 0.623972
vt 0.274864 0.516897
vt 0.959846 0.653052
vt 0.959763 0.496100
vt 0.929340 0.810120
vt 0.929443 0.653122
vt 0.801876 0.989890
vt 0.795442 0.727240
vt 0.892774 0.685617
vt 0.929173 0.792710
vt 0.926819 0.688162
vt 0.488187 0.288083
vt 0.183616 0.416339
vt 0.418829 0.211076
vt 0.959945 0.810047
vt 0.928992 0.970261
vt 0.899115 0.810127
vt 0.726240 0.795431
vt 0.961700 0.685180
vt 0.404239 0.194125
vt 0.073487 0.283721
vt 0.316563 0.087978
vt 0.094255 0.293729
vt 0.255469 0.769037
vt 0.035350 0.296989
vt 0.292837 0.031210
vt 0.291611 0.090210
vt 0.772231 0.234359
vt 0.712277 0.296472
vt 0.933445 0.709668
vt 0.992351 0.706407
vt 0.734864 0.972186
vt 0.736090 0.913187
vt 0.315423 0.706924
vt 0.788417 0.578507
vt 0.705604 0.915784
vt 0.581887 0.812294
vt 0.988605 0.802765
vt 0.800145 0.989298
vt 0.761856 0.849980
vt 0.497128 0.294611
vt 0.381732 0.622175
vt 0.268727 0.507083
vt 0.675396 0.989138
vt 0.248155 0.820771
vt 0.265331 0.750412
vt 0.626227 0.416484
vt 0.684314 0.308507
vt 0.709295 0.506778
vt 0.602241 0.401665
vt 0.986820 0.729848
vt 0.742165 0.975220
vt 0.715330 0.950722
vt 0.040501 0.273213
vt 0.286079 0.028757
vt 0.312872 0.053302
vt 0.352842 0.014932
vt 0.779690 0.182769
vt 0.762546 0.253026
vt 0.832810 0.235889
vt 1.000660 0.662946
vt 0.194966 0.767583
vt 0.026569 0.340131
vt 0.001497 0.189024
vt 0.189152 0.001739
vt 0.227635 0.141295
vt 0.191612 0.422020
vt 0.425399 0.215489
vt 0.496824 0.735179
vt 0.575423 0.365589
vt 0.088122 0.298303
vt 0.329136 0.100412
vt 0.305841 0.682893
vt 0.414498 0.625817
vt 0.363765 0.575038
vt 0.373374 0.616021
vt 0.720694 0.840277
vt 0.760869 0.887921
vt 0.848752 0.763499
vt 0.839226 0.722439
vt 0.886900 0.762835
vt 0.616620 0.375424
vt 0.268808 0.150952
vt 0.228571 0.103270
vt 0.141183 0.228086
vt 0.150699 0.269130
vt 0.103073 0.228806
vt 0.239110 0.776631
vt 0.714845 0.962904
vt 0.974431 0.702478
vt 0.788725 0.226849
vt 0.313375 0.041116
vt 0.052849 0.300612
vt 0.169026 0.399387
vt 0.505075 0.745718
vt 0.058079 0.264587
vt 0.301154 0.068844
vt 0.599955 0.402622
vt 0.933734 0.701424
vt 0.606185 0.836357
vt 0.897406 0.018097
vt 0.967470 0.019994
vt 0.259526 0.500620
vt 0.898375 0.968819
vt 0.960355 0.968961
vt 0.903494 0.674770
vt 0.962219 0.702980
vt 0.065058 0.300126
vn 0.9518 0.2355 -0.1967
vn -0.0378 0.9993 0.0078
vn -0.7623 0.6413 0.0869
vn -0.7746 -0.6263 0.0883
vn 0.9843 0.0899 -0.1522
vn 0.9518 -0.2355 -0.1967
vn 0.0000 0.5136 -0.8580
vn -0.0000 0.9996 0.0299
vn -0.0000 0.3436 0.9391
vn 0.0000 -0.2171 0.9761
vn 0.0000 0.2832 -0.9591
vn 0.0000 -0.5136 -0.8580
vn -0.9518 0.2355 -0.1967
vn 0.0586 0.9983 0.0067
vn 0.9049 0.4151 0.0941
vn 0.9154 -0.3912 0.0952
vn -0.9843 0.0899 -0.1522
vn -0.9518 -0.2355 -0.1967
vn -0.9518 0.2355 0.1967
vn 0.0378 0.9993 -0.0078
vn 0.7623 0.6413 -0.0869
vn 0.7746 -0.6263 -0.0883
vn -0.9843 0.0899 0.1522
vn -0.9518 -0.2355 0.1967
vn 0.0000 0.5136 0.8580
vn -0.0000 0.9996 -0.0299
vn 0.0000 0.3436 -0.9391
vn -0.0000 -0.2171 -0.9761
vn 0.0000 0.2832 0.9591
vn 0.0000 -0.5136 0.8580
vn 0.9518 0.2355 0.1967
vn -0.0586 0.9983 -0.0067
vn -0.9049 0.4151 -0.0941
vn -0.9154 -0.3912 -0.0952
vn 0.9843 0.0899 0.1522
vn 0.9518 -0.2355 0.1967
vn -0.0559 -0.9984 -0.0076
vn -0.0000 -0.9996 -0.0296
vn 0.0377 -0.9993 -0.0043
vn 0.0559 -0.9984 0.0076
vn -0.0000 -0.9996 0.0296
vn -0.0377 -0.9993 0.0043
vn -0.9881 -0.0739 -0.1347
vn 0.9881 -0.0739 0.1347
vn -0.0377 -0.9993 0.0058
vn 0.0384 -0.9992 0.0079
vn 0.9881 -0.0739 -0.1347
vn 0.0377 -0.9993 -0.0058
vn 0.0377 -0.9993 0.0058
vn -0.0377 -0.9993 -0.0058
vn -0.0000 -0.2646 0.9643
vn 0.0000 -0.2646 -0.9643
vn 0.0384 -0.9992 -0.0079
vn -0.9881 -0.0739 0.1347
vn -0.0384 -0.9992 0.0079
vn -0.0270 -0.9996 0.0000
vn -0.0201 -0.9997 0.0109
vn 0.0201 -0.9997 0.0109
vn 0.0270 -0.9996 0.0000
vn 0.0201 -0.9997 -0.0109
vn -0.0201 -0.9997 -0.0109
vn -0.0627 -0.9980 0.0000
vn -0.0741 -0.9964 0.0403
vn 0.0741 -0.9964 0.0403
vn 0.0627 -0.9980 0.0000
vn 0.0741 -0.9964 -0.0403
vn -0.0741 -0.9964 -0.0403
vn 0.8642 0.1784 0.4705
vn -0.8642 0.1784 0.4705
vn -0.8642 0.1784 -0.4705
vn 0.8642 0.1784 -0.4705
vn 0.9959 0.0909 0.0000
vn -0.9959 0.0909 0.0000
vn -0.0384 -0.9992 -0.0079
vn -0.0586 0.9983 0.0067
vn -0.9049 0.4151 0.0941
vn -0.9154 -0.3912 0.0952
vn 0.0378 0.9993 0.0078
vn 0.7623 0.6413 0.0869
vn 0.7746 -0.6263 0.0883
vn 0.0586 0.9983 -0.0067
vn 0.9049 0.4151 -0.0941
vn 0.9154 -0.3912 -0.0952
vn -0.0378 0.9993 -0.0078
vn -0.7623 0.6413 -0.0869
vn -0.7746 -0.6263 -0.0883
vn -0.0377 -0.9993 -0.0043
vn 0.0559 -0.9984 -0.0076
vn 0.0377 -0.9993 0.0043
vn -0.0559 -0.9984 0.0076
vn -0.0540 -0.9985 0.0074
vn -0.0541 -0.9985 0.0084
vn 0.0541 -0.9985 0.0084
vn 0.0540 -0.9985 -0.0074
vn 0.0541 -0.9985 -0.0084
vn 0.0540 -0.9985 0.0074
vn -0.0541 -0.9985 -0.0084
vn -0.0540 -0.9985 -0.0074
usemtl Material.001
s off
f 7/1/1 2/2/1 1/3/1
f 8/4/2 3/5/2 2/6/2
f 9/7/3 4/8/3 3/9/3
f 4/8/4 11/10/4 5/11/4
f 52/12/5 67/13/5 71/14/5
f 12/15/6 1/3/6 6/16/6
f 13/17/7 8/18/7 7/1/7
f 8/4/8 15/19/8 9/20/8
f 9/7/9 16/21/9 10/22/9
f 16/21/10 11/10/10 10/22/10
f 53/23/11 74/24/11 55/25/11
f 18/26/12 7/1/12 12/15/12
f 19/27/13 14/28/13 13/17/13
f 14/29/14 21/30/14 15/19/14
f 15/31/15 22/32/15 16/21/15
f 22/32/16 17/33/16 16/21/16
f 56/34/17 77/35/17 58/36/17
f 18/26/18 19/27/18 13/17/18
f 19/27/19 26/37/19 20/38/19
f 26/39/20 21/30/20 20/40/20
f 27/41/21 22/42/21 21/43/21
f 22/42/22 29/44/22 23/45/22
f 61/46/23 76/47/23 80/48/23
f 30/49/24 19/27/24 24/50/24
f 31/51/25 26/37/25 25/52/25
f 32/53/26 27/54/26 26/39/26
f 33/55/27 28/56/27 27/41/27
f 34/57/28 29/44/28 28/56/28
f 62/58/29 83/59/29 64/60/29
f 36/61/30 25/52/30 30/49/30
f 1/62/31 32/63/31 31/51/31
f 32/53/32 3/5/32 33/64/32
f 33/55/33 4/8/33 34/57/33
f 4/8/34 35/65/34 34/57/34
f 65/66/35 68/67/35 49/68/35
f 36/61/36 1/62/36 31/51/36
f 35/69/37 37/70/37 42/71/37
f 35/69/38 41/72/38 29/73/38
f 29/73/39 40/74/39 23/75/39
f 17/76/40 40/74/40 39/77/40
f 17/76/41 38/78/41 11/79/41
f 11/79/42 37/70/42 5/80/42
f 42/81/43 43/82/43 44/83/43
f 18/84/41 12/85/41 53/86/41
f 39/87/44 46/88/44 47/89/44
f 71/90/45 67/91/45 43/92/45
f 18/84/46 58/93/46 24/94/46
f 41/95/47 46/88/47 40/96/47
f 74/97/41 70/98/41 48/99/41
f 83/100/38 79/101/38 45/102/38
f 80/103/48 76/104/48 46/105/48
f 77/106/49 73/107/49 46/105/49
f 68/108/50 82/109/50 43/92/50
f 36/110/38 30/111/38 62/112/38
f 39/87/51 48/113/51 38/114/51
f 42/81/52 45/115/52 41/95/52
f 30/111/53 24/94/53 59/116/53
f 38/114/54 43/117/54 37/118/54
f 12/85/55 6/119/55 50/120/55
f 49/121/56 50/120/56 51/122/56
f 52/123/57 53/86/57 54/124/57
f 55/125/58 56/126/58 57/127/58
f 58/93/59 59/116/59 60/128/59
f 61/129/60 62/112/60 63/130/60
f 64/131/61 65/132/61 66/133/61
f 67/91/62 68/108/62 69/134/62
f 70/98/63 71/90/63 72/135/63
f 73/107/64 74/97/64 75/136/64
f 76/104/65 77/106/65 78/137/65
f 79/101/66 80/103/66 81/138/66
f 82/109/67 83/100/67 84/139/67
f 82/140/68 64/60/68 83/59/68
f 80/48/69 62/58/69 61/46/69
f 73/141/70 55/25/70 74/24/70
f 71/14/71 53/23/71 52/12/71
f 49/68/72 67/142/72 50/143/72
f 58/36/73 76/47/73 59/144/73
f 36/110/74 49/121/74 6/119/74
f 7/1/1 8/18/1 2/2/1
f 8/4/75 9/20/75 3/5/75
f 9/7/76 10/22/76 4/8/76
f 4/8/77 10/22/77 11/10/77
f 52/12/5 50/145/5 67/13/5
f 12/15/6 7/1/6 1/3/6
f 13/17/7 14/28/7 8/18/7
f 8/4/8 14/29/8 15/19/8
f 9/7/9 15/31/9 16/21/9
f 16/21/10 17/33/10 11/10/10
f 53/23/11 70/146/11 74/24/11
f 18/26/12 13/17/12 7/1/12
f 19/27/13 20/38/13 14/28/13
f 14/29/78 20/40/78 21/30/78
f 15/31/79 21/147/79 22/32/79
f 22/32/80 23/148/80 17/33/80
f 56/34/17 73/141/17 77/35/17
f 18/26/18 24/50/18 19/27/18
f 19/27/19 25/52/19 26/37/19
f 26/39/81 27/54/81 21/30/81
f 27/41/82 28/56/82 22/42/82
f 22/42/83 28/56/83 29/44/83
f 61/46/23 59/144/23 76/47/23
f 30/49/24 25/52/24 19/27/24
f 31/51/25 32/63/25 26/37/25
f 32/53/26 33/64/26 27/54/26
f 33/55/27 34/57/27 28/56/27
f 34/57/28 35/65/28 29/44/28
f 62/58/29 79/149/29 83/59/29
f 36/61/30 31/51/30 25/52/30
f 1/62/31 2/150/31 32/63/31
f 32/53/84 2/6/84 3/5/84
f 33/55/85 3/9/85 4/8/85
f 4/8/86 5/11/86 35/65/86
f 65/66/35 82/140/35 68/67/35
f 36/61/36 6/151/36 1/62/36
f 35/69/87 5/80/87 37/70/87
f 35/69/38 42/71/38 41/72/38
f 29/73/88 41/72/88 40/74/88
f 17/76/89 23/75/89 40/74/89
f 17/76/41 39/77/41 38/78/41
f 11/79/90 38/78/90 37/70/90
f 42/81/43 37/152/43 43/82/43
f 12/85/41 54/124/41 53/86/41
f 53/86/41 55/125/41 18/84/41
f 55/125/41 57/127/41 18/84/41
f 39/87/44 40/96/44 46/88/44
f 69/134/45 43/92/45 67/91/45
f 43/92/91 48/99/91 71/90/91
f 48/99/92 72/135/92 71/90/92
f 18/84/93 57/127/93 56/126/93
f 56/126/93 58/93/93 18/84/93
f 58/93/49 60/128/49 24/94/49
f 41/95/47 45/115/47 46/88/47
f 72/135/41 48/99/41 70/98/41
f 48/99/41 47/153/41 74/97/41
f 47/153/41 75/136/41 74/97/41
f 81/138/38 45/102/38 79/101/38
f 45/102/38 44/154/38 83/100/38
f 44/154/38 84/139/38 83/100/38
f 78/137/48 46/105/48 76/104/48
f 46/105/94 45/102/94 80/103/94
f 45/102/95 81/138/95 80/103/95
f 75/136/93 47/153/93 73/107/93
f 47/153/96 46/105/96 73/107/96
f 46/105/49 78/137/49 77/106/49
f 84/139/97 44/154/97 82/109/97
f 44/154/98 43/92/98 82/109/98
f 43/92/50 69/134/50 68/108/50
f 30/111/38 63/130/38 62/112/38
f 62/112/38 64/131/38 36/110/38
f 64/131/38 66/133/38 36/110/38
f 39/87/51 47/89/51 48/113/51
f 42/81/52 44/83/52 45/115/52
f 24/94/48 60/128/48 59/116/48
f 59/116/95 61/129/95 30/111/95
f 61/129/95 63/130/95 30/111/95
f 38/114/54 48/113/54 43/117/54
f 6/119/45 51/122/45 50/120/45
f 50/120/92 52/123/92 12/85/92
f 52/123/92 54/124/92 12/85/92
f 82/140/68 65/66/68 64/60/68
f 80/48/69 79/149/69 62/58/69
f 73/141/70 56/34/70 55/25/70
f 71/14/71 70/146/71 53/23/71
f 49/68/72 68/67/72 67/142/72
f 58/36/73 77/35/73 76/47/73
f 36/110/97 66/133/97 65/132/97
f 65/132/97 49/121/97 36/110/97
f 49/121/50 51/122/50 6/119/50
