# Blender v2.93.4 OBJ File: 'leaf uncolloresdblend.blend'
# www.blender.org
mtllib plant.mtl
o Cylinder
v -0.069213 -0.021805 -0.039960
v -0.000000 0.168876 -0.070380
v 0.056008 -0.007177 -0.032336
v 0.059354 0.179391 0.029865
v -0.000000 0.005974 0.050964
v -0.067754 0.180347 0.039383
v 0.036455 0.380607 -0.036682
v -0.048137 0.354784 -0.033704
v 0.003415 0.386711 0.063168
v 0.251637 0.413932 -0.463133
v 0.529622 0.382306 0.012073
v 0.674748 0.283045 -0.518591
v 0.785329 0.276215 -0.324386
v 0.859499 0.243623 -0.483351
v -0.528110 0.399888 0.012945
v -0.255656 0.367184 -0.465452
v -0.797394 0.361420 -0.331351
v -0.674599 0.283279 -0.518504
v -0.850989 0.254075 -0.504200
v 0.275266 0.394821 0.450942
v -0.275266 0.378657 0.452992
v 0.111738 0.310523 0.848060
v -0.111738 0.313586 0.848467
v -0.011155 0.275754 0.995412
v 0.528337 0.556052 -0.012815
v 0.254809 0.541803 0.464964
v 0.791403 0.487936 0.327893
v 0.685796 0.531283 0.524969
v 0.858958 0.455127 0.508801
v -0.275266 0.554965 -0.452046
v 0.275266 0.619466 -0.446617
v -0.111738 0.510375 -0.852928
v 0.111738 0.507926 -0.852551
v 0.011156 0.459058 -0.999428
v -0.252411 0.576568 0.463580
v -0.532325 0.510932 -0.010512
v -0.679951 0.489989 0.521594
v -0.789622 0.475854 0.326865
v -0.854824 0.394708 0.480652
v 0.002695 0.379267 0.004716
vt 0.818282 0.151507
vt 0.980687 0.083283
vt 0.980687 0.219730
vt 0.978545 0.492626
vt 0.820423 0.424402
vt 0.978545 0.356178
vt 0.818282 0.287954
vt 0.140240 0.736827
vt 0.251616 0.885109
vt 0.067512 0.907422
vt 0.978545 0.219730
vt 0.820423 0.151507
vt 0.978545 0.083283
vt 0.820423 0.287954
vt 0.041482 0.147223
vt 0.718651 0.259367
vt 0.227415 0.716348
vt 0.715780 0.942040
vt 0.911649 0.747811
vt 0.949404 0.966563
vt 0.980687 0.356178
vt 0.818282 0.424402
vt 0.820423 0.015059
vt 0.818282 0.015059
vt 0.152932 0.035032
vt 0.980687 0.492626
vt 0.715892 0.253629
vt 0.714088 0.938215
vt 0.228240 0.717191
vt 0.912039 0.750042
vt 0.949542 0.967911
vt 0.715892 0.253629
vt 0.714088 0.938215
vt 0.228240 0.717191
vt 0.912039 0.750042
vt 0.949542 0.967911
vt 0.714485 0.250069
vt 0.712682 0.934655
vt 0.226833 0.713631
vt 0.910633 0.746483
vt 0.948136 0.964351
vt 0.714485 0.250069
vt 0.712682 0.934655
vt 0.226834 0.713631
vt 0.910633 0.746483
vt 0.948135 0.964351
vt 0.714485 0.250069
vt 0.712682 0.934655
vt 0.226834 0.713631
vt 0.910633 0.746483
vt 0.948135 0.964351
vt 0.158863 0.035402
vt 0.040566 0.147854
vt 0.154582 0.032978
vt 0.036285 0.145431
vt 0.158863 0.035402
vt 0.040566 0.147855
vt 0.158863 0.035402
vt 0.040566 0.147855
vt 0.036284 0.145431
vt 0.154581 0.032978
vt 0.151910 0.831787
vt 0.050106 0.913683
vt 0.142021 0.709764
vt 0.278104 0.890939
vn -0.8212 0.2136 -0.5292
vn -0.8504 -0.1191 -0.5125
vn 0.0813 -0.1857 -0.9792
vn 0.0999 -0.9703 0.2204
vn 0.0729 -0.1390 0.9876
vn 0.8616 -0.0683 -0.5030
vn -0.3962 0.8712 0.2898
vn 0.2819 0.9541 -0.1014
vn 0.2249 0.9699 -0.0939
vn 0.7973 -0.2037 0.5682
vn -0.8852 0.2609 0.3851
vn -0.7345 -0.2433 0.6335
vn 0.9330 0.2042 0.2963
vn -0.0868 0.1711 -0.9814
vn -0.3883 0.9117 0.1343
vn 0.2534 0.9610 -0.1105
vn 0.8426 0.1567 -0.5153
vn 0.0750 0.0951 0.9926
vn -0.0319 0.9958 -0.0863
vn -0.1811 0.8596 -0.4777
vn -0.1205 0.8855 -0.4488
vn -0.0280 0.9801 0.1965
vn 0.0137 0.9706 0.2405
vn 0.0138 0.9875 0.1568
vn 0.1249 0.9870 0.1009
vn 0.4037 0.9148 0.0151
vn 0.0502 0.9807 -0.1888
vn -0.1134 0.9813 -0.1554
vn 0.0109 0.9465 -0.3224
vn 0.0110 0.9631 -0.2691
vn -0.2007 0.9795 -0.0171
vn -0.5063 0.8326 0.2247
vn -0.1320 0.9912 0.0024
vn -0.3238 0.9329 -0.1575
vn 0.3243 -0.9316 0.1643
vn -0.0280 0.8958 -0.4435
vn 0.0265 -0.8954 0.4445
vn -0.1141 -0.9239 0.3652
vn 0.2808 0.9142 -0.2924
vn -0.1082 0.8851 0.4527
vn -0.2327 0.8221 0.5197
vn 0.4262 0.8885 0.1702
vn 0.4155 0.8925 0.1756
vn 0.1880 -0.9746 0.1218
vn 0.2923 -0.9334 0.2081
vn 0.3602 -0.9259 0.1135
usemtl Material.001
s off
f 1/1/1 6/2/1 2/3/1
f 6/4/2 8/5/2 2/6/2
f 2/3/3 3/7/3 1/1/3
f 1/8/4 3/9/4 5/10/4
f 4/11/5 9/12/5 6/13/5
f 2/6/6 7/14/6 4/11/6
f 2/15/7 11/16/7 10/17/7
f 11/16/8 12/18/8 10/17/8
f 12/18/9 13/19/9 14/20/9
f 4/21/10 5/22/10 3/7/10
f 6/13/11 9/12/11 8/23/11
f 1/1/12 5/24/12 6/2/12
f 4/11/13 7/14/13 9/12/13
f 2/6/14 8/5/14 7/14/14
f 2/15/15 4/25/15 11/16/15
f 11/16/16 13/19/16 12/18/16
f 2/3/17 4/21/17 3/7/17
f 4/21/18 6/26/18 5/22/18
f 16/27/19 17/28/19 15/29/19
f 17/28/20 18/30/20 19/31/20
f 16/27/21 18/30/21 17/28/21
f 21/32/22 22/33/22 20/34/22
f 22/33/23 23/35/23 24/36/23
f 21/32/24 23/35/24 22/33/24
f 26/37/25 27/38/25 25/39/25
f 27/38/26 28/40/26 29/41/26
f 26/37/27 28/40/27 27/38/27
f 31/42/28 32/43/28 30/44/28
f 32/43/29 33/45/29 34/46/29
f 31/42/30 33/45/30 32/43/30
f 36/47/31 37/48/31 35/49/31
f 37/48/32 38/50/32 39/51/32
f 36/47/33 38/50/33 37/48/33
f 25/39/34 9/52/34 26/37/34
f 7/53/35 25/39/35 9/52/35
f 20/34/36 6/54/36 21/32/36
f 4/55/37 20/34/37 6/54/37
f 35/49/38 8/56/38 9/57/38
f 35/49/39 8/56/39 36/47/39
f 31/42/40 30/44/40 7/58/40
f 7/58/41 30/44/41 8/59/41
f 16/27/42 6/60/42 2/61/42
f 16/27/43 15/29/43 6/60/43
f 40/62/44 7/63/44 9/64/44
f 40/62/45 8/65/45 7/63/45
f 8/65/46 40/62/46 9/64/46
