# Blender v3.2.2 OBJ File: ''
# www.blender.org
mtllib tv thing.mtl
o Plane
v -1.000000 0.000000 2.000000
v 1.000000 0.000000 2.000000
v -1.000000 0.000000 -2.000000
v 1.000000 0.000000 -2.000000
v -1.184778 -0.058532 -2.232884
v -1.184778 -0.058532 2.232884
v 1.184778 -0.058532 2.232884
v 1.184778 -0.058532 -2.232884
v -1.000000 0.066365 -2.000000
v -1.000000 0.066365 2.000000
v 1.000000 0.066365 2.000000
v 1.000000 0.066365 -2.000000
v -1.184778 0.007833 -2.232884
v -1.184778 0.007833 2.232884
v 1.184778 0.007833 2.232884
v 1.184778 0.007833 -2.232884
vt 0.000000 1.000000
vt 1.000000 1.000000
vt 1.000000 0.000000
vt 0.000000 0.000000
vt 0.000000 1.000000
vt 0.000000 0.000000
vt 1.000000 0.000000
vt 1.000000 1.000000
vt 0.000000 1.000000
vt 0.000000 0.000000
vt 1.000000 0.000000
vt 1.000000 1.000000
vt 0.000000 1.000000
vt 1.000000 1.000000
vt 1.000000 0.000000
vt 0.000000 0.000000
vn 0.0000 -1.0000 0.0000
vn 0.0000 1.0000 0.0000
vn 0.0000 0.0000 -1.0000
vn 0.0000 0.0000 1.0000
vn -1.0000 0.0000 0.0000
vn 1.0000 0.0000 0.0000
vn -0.3020 -0.9533 0.0000
vn 0.3020 -0.9533 0.0000
vn 0.0000 -0.9698 0.2438
vn 0.0000 -0.9698 -0.2438
usemtl Material.001
s off
f 1/1/1 3/2/1 4/3/1 2/4/1
f 6/5/2 7/6/2 8/7/2 5/8/2
f 7/6/3 6/5/3 14/9/3 15/10/3
f 5/8/4 8/7/4 16/11/4 13/12/4
f 3/2/5 1/1/5 10/13/5 9/14/5
f 2/4/6 4/3/6 12/15/6 11/16/6
f 11/16/7 12/15/7 16/11/7 15/10/7
f 9/14/8 10/13/8 14/9/8 13/12/8
f 12/15/9 9/14/9 13/12/9 16/11/9
f 10/13/10 11/16/10 15/10/10 14/9/10
f 4/3/3 3/2/3 9/14/3 12/15/3
f 1/1/4 2/4/4 11/16/4 10/13/4
f 8/7/5 7/6/5 15/10/5 16/11/5
f 6/5/6 5/8/6 13/12/6 14/9/6
